<mxfile host="app.diagrams.net" modified="2024-03-04T10:14:12.841Z" agent="Mozilla/5.0 (Macintosh; Intel Mac OS X 10_15_7) AppleWebKit/537.36 (KHTML, like Gecko) Chrome/121.0.0.0 Safari/537.36" version="23.1.7" etag="xs6dj0d9EWWMpa212FLn" type="github">
  <diagram name="Page-1" id="bycYOScXw7I0L5zovb6S">
    <mxGraphModel>
      <root>
        <mxCell id="0" />
        <mxCell id="1" parent="0" />
      </root>
    </mxGraphModel>
  </diagram>
</mxfile>
